<?xml version="1.0" encoding="UTF-8"?>
<!DOCTYPE svg PUBLIC "-//W3C//DTD SVG 1.1//EN" "http://www.w3.org/Graphics/SVG/1.1/DTD/svg11.dtd">
<!-- Creator: CorelDRAW -->
<svg xmlns="http://www.w3.org/2000/svg" xml:space="preserve" width="28px" height="27px" version="1.1" style="shape-rendering:geometricPrecision; text-rendering:geometricPrecision; image-rendering:optimizeQuality; fill-rule:evenodd; clip-rule:evenodd"
viewBox="0 0 29.85 29.05"
 xmlns:xlink="http://www.w3.org/1999/xlink"
 xmlns:xodm="http://www.corel.com/coreldraw/odm/2003">
 <defs>
  <style type="text/css">
   <![CDATA[
    .fil0 {fill:#292D32;fill-rule:nonzero}
   ]]>
  </style>
 </defs>
 <g id="Layer_x0020_1">
  <metadata id="CorelCorpID_0Corel-Layer"/>
  <path class="fil0" d="M23.45 29.05c-2.19,0 -4.25,-1.13 -5.41,-3 -0.62,-0.96 -0.98,-2.1 -1,-3.28 -0.04,-1.97 0.79,-3.81 2.29,-5.05 1.12,-0.93 2.53,-1.46 3.97,-1.5 1.76,-0.01 3.34,0.6 4.58,1.79 1.24,1.18 1.94,2.78 1.97,4.49 0.03,1.18 -0.27,2.32 -0.86,3.34 -0.33,0.56 -0.75,1.09 -1.25,1.54 -1.1,1.03 -2.59,1.64 -4.17,1.67 -0.03,0 -0.07,0 -0.12,0zm0 -10.8c-0.03,0 -0.07,0 -0.09,0 -1,0.03 -1.95,0.38 -2.73,1.03 -1.03,0.85 -1.59,2.1 -1.57,3.45 0.02,0.8 0.26,1.58 0.68,2.24 0.82,1.33 2.25,2.14 3.79,2.05 1.07,-0.02 2.08,-0.43 2.85,-1.14 0.35,-0.31 0.63,-0.66 0.85,-1.04 0.41,-0.7 0.61,-1.49 0.59,-2.28 -0.02,-1.18 -0.5,-2.27 -1.35,-3.08 -0.81,-0.8 -1.89,-1.23 -3.02,-1.23z"/>
  <path class="fil0" d="M22.71 25c-0.26,0 -0.5,-0.1 -0.7,-0.28l-1.37 -1.3c-0.4,-0.39 -0.42,-1.03 -0.03,-1.43 0.4,-0.41 1.03,-0.42 1.44,-0.03l0.66 0.64 2.12 -2.06c0.4,-0.39 1.04,-0.37 1.43,0.03 0.39,0.41 0.38,1.04 -0.03,1.43l-2.82 2.73c-0.2,0.17 -0.46,0.27 -0.7,0.27z"/>
  <path class="fil0" d="M14 16.29c-0.18,0 -0.35,-0.04 -0.51,-0.13l-11.92 -6.9c-0.49,-0.29 -0.65,-0.91 -0.37,-1.39 0.29,-0.49 0.91,-0.65 1.38,-0.37l11.41 6.6 11.34 -6.56c0.48,-0.28 1.1,-0.1 1.37,0.37 0.29,0.48 0.11,1.1 -0.36,1.39l-11.84 6.86c-0.15,0.08 -0.32,0.13 -0.5,0.13z"/>
  <path class="fil0" d="M14 28.52c-0.55,0 -1.01,-0.46 -1.01,-1.01l0 -12.24c0,-0.56 0.46,-1.02 1.01,-1.02 0.55,0 1.01,0.46 1.01,1.02l0 12.24c0,0.55 -0.46,1.01 -1.01,1.01z"/>
  <path class="fil0" d="M14 29.05c-1.19,0 -2.38,-0.26 -3.29,-0.78l-7.21 -4c-1.96,-1.08 -3.5,-3.69 -3.5,-5.93l0 -7.64c0,-2.24 1.54,-4.83 3.5,-5.92l7.21 -4c1.83,-1.04 4.72,-1.04 6.57,0l7.21 4c1.96,1.08 3.5,3.68 3.5,5.92l0 7.64c0,0.14 0,0.25 -0.03,0.38 -0.07,0.35 -0.32,0.65 -0.66,0.76 -0.34,0.12 -0.72,0.04 -1,-0.19 -1.55,-1.35 -3.96,-1.41 -5.59,-0.1 -1.04,0.83 -1.65,2.08 -1.65,3.42 0,0.8 0.22,1.58 0.64,2.25 0.11,0.19 0.21,0.34 0.33,0.49 0.21,0.23 0.29,0.54 0.23,0.84 -0.05,0.29 -0.24,0.55 -0.51,0.7l-2.47 1.36c-0.92,0.54 -2.09,0.8 -3.28,0.8zm0 -27c-0.84,0 -1.69,0.17 -2.3,0.51l-7.2 4c-1.31,0.71 -2.45,2.66 -2.45,4.14l0 7.64c0,1.49 1.15,3.43 2.45,4.15l7.2 3.99c1.23,0.69 3.38,0.69 4.61,0l1.51 -0.83c-0.5,-0.91 -0.77,-1.96 -0.77,-3.04 0,-1.97 0.88,-3.79 2.4,-5.01 1.84,-1.47 4.46,-1.78 6.52,-0.9l0 -6.02c0,-1.49 -1.14,-3.43 -2.44,-4.15l-7.21 -4c-0.63,-0.31 -1.48,-0.48 -2.32,-0.48z"/>
 </g>
</svg>
